<svg aria-hidden="true" style="position: absolute; width: 0; height: 0; overflow: hidden;" version="1.1"
    xmlns="http://www.w3.org/2000/svg" xmlns:xlink="http://www.w3.org/1999/xlink">
    <defs>
        <symbol id="tiktok" viewBox="0 0 33 32">
            <path fill="#161313" style="fill: var(--color1, #161313)"
                d="M16.333 0c8.837 0 16 7.163 16 16s-7.163 16-16 16c-8.837 0-16-7.163-16-16s7.163-16 16-16z"></path>
            <path fill="#ff004f" style="fill: var(--color2, #ff004f)"
                d="M20.795 12.885c1.44 1.033 3.205 1.641 5.111 1.641v-3.681c-0.361 0-0.72-0.038-1.073-0.113v2.897c-1.906 0-3.67-0.608-5.111-1.641v7.511c0 3.757-3.035 6.803-6.779 6.803-1.397 0-2.695-0.424-3.774-1.151 1.231 1.263 2.948 2.047 4.847 2.047 3.744 0 6.779-3.046 6.779-6.803v-7.511h-0zM22.119 9.172c-0.736-0.807-1.219-1.85-1.324-3.003v-0.473h-1.017c0.256 1.466 1.129 2.718 2.341 3.477zM11.537 22.269c-0.411-0.541-0.634-1.203-0.633-1.884 0-1.718 1.388-3.112 3.101-3.112 0.319-0 0.636 0.049 0.941 0.146v-3.763c-0.355-0.049-0.714-0.070-1.073-0.062v2.929c-0.304-0.097-0.622-0.146-0.941-0.146-1.713 0-3.101 1.393-3.101 3.112 0 1.215 0.694 2.267 1.706 2.78z">
            </path>
            <path fill="#e9e9e9" style="fill: var(--color3, #e9e9e9)"
                d="M19.722 11.989c1.441 1.033 3.205 1.641 5.111 1.641v-2.897c-1.064-0.227-2.005-0.785-2.714-1.561-1.212-0.759-2.085-2.011-2.341-3.477h-2.672v14.701c-0.006 1.714-1.392 3.101-3.101 3.101-1.007 0-1.902-0.482-2.468-1.228-1.012-0.513-1.706-1.565-1.706-2.78 0-1.719 1.388-3.112 3.101-3.112 0.328 0 0.644 0.051 0.941 0.146v-2.929c-3.678 0.076-6.636 3.092-6.636 6.801 0 1.852 0.737 3.53 1.932 4.757 1.079 0.727 2.377 1.151 3.774 1.151 3.744 0 6.779-3.046 6.779-6.803v-7.511h-0z">
            </path>
            <path fill="#00f2ea" style="fill: var(--color4, #00f2ea)"
                d="M24.833 10.733v-0.783c-0.959 0.001-1.9-0.268-2.714-0.778 0.72 0.792 1.669 1.337 2.714 1.561zM19.778 5.695c-0.024-0.14-0.043-0.281-0.056-0.423v-0.473h-3.689v14.701c-0.006 1.714-1.392 3.101-3.101 3.101-0.502 0-0.976-0.12-1.395-0.332 0.567 0.746 1.461 1.228 2.468 1.228 1.709 0 3.095-1.388 3.101-3.101v-14.701h2.672zM13.874 13.595v-0.834c-0.308-0.042-0.619-0.064-0.93-0.063-3.744-0-6.779 3.046-6.779 6.803 0 2.355 1.193 4.431 3.005 5.652-1.196-1.226-1.932-2.905-1.932-4.757 0-3.709 2.958-6.725 6.636-6.801z">
            </path>
        </symbol>
        <symbol id="check" viewBox="0 0 33 32" fill="none">
            <path stroke="#161313" stroke-linejoin="round" stroke-linecap="round" stroke-miterlimit="4" stroke-width="2.6667"
                d="M30 14.773v1.227c-0.002 2.875-0.933 5.673-2.654 7.976s-4.141 3.987-6.899 4.803c-2.757 0.815-5.704 0.717-8.401-0.279s-5-2.838-6.565-5.25c-1.565-2.412-2.308-5.265-2.119-8.134s1.301-5.6 3.169-7.786 4.393-3.709 7.197-4.343c2.805-0.634 5.739-0.344 8.365 0.826">
            </path>
            <path stroke="#161313" stroke-linejoin="round" stroke-linecap="round" stroke-miterlimit="4" stroke-width="2.6667"
                d="M30 5.333l-13.333 13.347-4-4"></path>
        </symbol>
        <symbol id="burger" viewBox="0 0 38 32">
            <path
                d="M1.231 0h35.692c0.68 0 1.231 0.551 1.231 1.231v1.231c0 0.68-0.551 1.231-1.231 1.231h-35.692c-0.68 0-1.231-0.551-1.231-1.231v-1.231c0-0.68 0.551-1.231 1.231-1.231z">
            </path>
            <path
                d="M12.308 14.154h24.615c0.68 0 1.231 0.551 1.231 1.231v1.231c0 0.68-0.551 1.231-1.231 1.231h-24.615c-0.68 0-1.231-0.551-1.231-1.231v-1.231c0-0.68 0.551-1.231 1.231-1.231z">
            </path>
            <path
                d="M1.231 28.308h35.692c0.68 0 1.231 0.551 1.231 1.231v1.231c0 0.68-0.551 1.231-1.231 1.231h-35.692c-0.68 0-1.231-0.551-1.231-1.231v-1.231c0-0.68 0.551-1.231 1.231-1.231z">
            </path>
        </symbol>
        <symbol id="telegram" viewBox="0 0 33 32">
            <path fill="#2AABEE" style="fill: var(--color5, #2AABEE)"
                d="M16.333 0c8.837 0 16 7.163 16 16s-7.163 16-16 16c-8.837 0-16-7.163-16-16s7.163-16 16-16z"></path>
            <path fill="#e9e9e9" style="fill: var(--color3, #e9e9e9)"
                d="M7.576 15.832c4.664-2.032 7.775-3.372 9.331-4.019 4.443-1.848 5.367-2.169 5.968-2.18 0.132-0.002 0.428 0.030 0.62 0.186 0.162 0.131 0.206 0.309 0.228 0.433s0.048 0.408 0.027 0.63c-0.241 2.53-1.283 8.67-1.813 11.503-0.224 1.199-0.666 1.601-1.093 1.64-0.929 0.085-1.635-0.614-2.535-1.204-1.408-0.923-2.204-1.498-3.571-2.399-1.58-1.041-0.556-1.613 0.345-2.548 0.236-0.245 4.329-3.968 4.409-4.306 0.010-0.042 0.019-0.2-0.074-0.283s-0.232-0.055-0.331-0.032c-0.141 0.032-2.391 1.519-6.749 4.461-0.639 0.438-1.217 0.652-1.735 0.641-0.571-0.012-1.67-0.323-2.487-0.589-1.002-0.326-1.798-0.498-1.729-1.051 0.036-0.288 0.433-0.583 1.19-0.884z">
            </path>
        </symbol>
        <symbol id="instagram" viewBox="0 0 33 32">
            <path fill="#161313" style="fill: var(--color1, #161313)"
                d="M16.333 0c8.837 0 16 7.163 16 16s-7.163 16-16 16c-8.837 0-16-7.163-16-16s7.163-16 16-16z"></path>
            <path fill="#e9e9e9" style="fill: var(--color3, #e9e9e9)"
                d="M16.336 8.131c2.565 0 2.866 0.011 3.88 0.057 0.938 0.042 1.445 0.198 1.784 0.332 0.45 0.175 0.77 0.381 1.105 0.717s0.545 0.656 0.717 1.105c0.13 0.339 0.29 0.846 0.332 1.784 0.046 1.014 0.057 1.315 0.057 3.88s-0.011 2.866-0.057 3.88c-0.042 0.938-0.198 1.445-0.332 1.784-0.175 0.45-0.381 0.77-0.717 1.105s-0.656 0.545-1.105 0.717c-0.339 0.13-0.846 0.29-1.784 0.332-1.014 0.046-1.315 0.057-3.88 0.057s-2.866-0.011-3.88-0.057c-0.938-0.042-1.445-0.198-1.784-0.332-0.45-0.175-0.77-0.381-1.105-0.717s-0.545-0.656-0.717-1.105c-0.13-0.339-0.29-0.846-0.332-1.784-0.046-1.014-0.057-1.315-0.057-3.88s0.011-2.866 0.057-3.88c0.042-0.938 0.198-1.445 0.332-1.784 0.175-0.45 0.381-0.77 0.717-1.105s0.656-0.545 1.105-0.717c0.339-0.13 0.846-0.29 1.784-0.332 1.014-0.050 1.319-0.057 3.88-0.057zM16.336 6.401c-2.607 0-2.935 0.011-3.96 0.057-1.022 0.046-1.719 0.21-2.329 0.446-0.633 0.244-1.166 0.576-1.7 1.109s-0.861 1.071-1.109 1.7c-0.236 0.61-0.4 1.307-0.446 2.333-0.046 1.021-0.057 1.349-0.057 3.956s0.011 2.935 0.057 3.96c0.046 1.021 0.21 1.719 0.446 2.333 0.244 0.633 0.576 1.166 1.109 1.7s1.071 0.861 1.7 1.109c0.61 0.236 1.307 0.4 2.333 0.446s1.349 0.057 3.96 0.057c2.611 0 2.935-0.011 3.96-0.057 1.021-0.046 1.719-0.21 2.333-0.446 0.633-0.244 1.166-0.576 1.7-1.109s0.861-1.071 1.109-1.7c0.236-0.61 0.4-1.307 0.446-2.333s0.057-1.349 0.057-3.96c0-2.611-0.011-2.935-0.057-3.96-0.046-1.022-0.21-1.719-0.446-2.333-0.244-0.633-0.576-1.166-1.109-1.7s-1.071-0.861-1.7-1.109c-0.61-0.236-1.307-0.4-2.333-0.446-1.029-0.042-1.357-0.053-3.964-0.053z">
            </path>
            <path fill="#e9e9e9" style="fill: var(--color3, #e9e9e9)"
                d="M16.336 11.073c-2.721 0-4.932 2.207-4.932 4.932s2.207 4.932 4.932 4.932c2.725 0 4.932-2.207 4.932-4.932s-2.207-4.932-4.932-4.932zM16.336 19.203c-1.769 0-3.202-1.433-3.202-3.202s1.433-3.202 3.202-3.202c1.769 0 3.202 1.433 3.202 3.202s-1.433 3.202-3.202 3.202z">
            </path>
            <path fill="#e9e9e9" style="fill: var(--color3, #e9e9e9)"
                d="M21.462 12.026c0.636 0 1.151-0.515 1.151-1.151s-0.515-1.151-1.151-1.151c-0.636 0-1.151 0.515-1.151 1.151s0.515 1.151 1.151 1.151z">
            </path>
        </symbol>
        <symbol id="arrow-down" viewBox="0 0 32 32">
            <path stroke-linejoin="round" stroke-linecap="round" stroke-miterlimit="4" stroke-width="1.3333"
                d="M8 12l8 8 8-8"></path>
        </symbol>
        <symbol id="hurt" viewBox="0 0 31 32" fill="none">
            <path stroke="#161313" stroke-linejoin="round" stroke-linecap="round" stroke-miterlimit="4" stroke-width="2.1333"
                d="M25.133 16.763l-9.667 9.904-9.667-9.904c-0.638-0.642-1.14-1.413-1.475-2.266s-0.496-1.768-0.473-2.688c0.023-0.92 0.231-1.825 0.609-2.658s0.919-1.576 1.588-2.182c0.669-0.606 1.453-1.063 2.301-1.34s1.743-0.371 2.627-0.273c0.885 0.098 1.74 0.384 2.513 0.84s1.445 1.073 1.976 1.812c0.533-0.733 1.206-1.345 1.979-1.797s1.626-0.734 2.508-0.828 1.774 0 2.619 0.279c0.845 0.278 1.626 0.734 2.293 1.339s1.206 1.345 1.584 2.175c0.378 0.83 0.586 1.732 0.611 2.649s-0.133 1.83-0.464 2.681c-0.331 0.851-0.829 1.622-1.462 2.265">
            </path>
            <path stroke="#161313" stroke-linejoin="round" stroke-linecap="round" stroke-miterlimit="4" stroke-width="2.1333"
                d="M15.468 8l-4.244 4.391c-0.242 0.25-0.377 0.589-0.377 0.943s0.136 0.693 0.377 0.943l0.7 0.724c0.889 0.92 2.333 0.92 3.222 0l1.289-1.333c0.769-0.796 1.812-1.243 2.9-1.243s2.131 0.447 2.9 1.243l2.9 3">
            </path>
            <path stroke="#161313" stroke-linejoin="round" stroke-linecap="round" stroke-miterlimit="4" stroke-width="2.1333"
                d="M16.11 20.667l2.578 2.667"></path>
            <path stroke="#161313" stroke-linejoin="round" stroke-linecap="round" stroke-miterlimit="4" stroke-width="2.1333"
                d="M19.333 17.333l2.578 2.667"></path>
        </symbol>
        <symbol id="clock" viewBox="0 0 33 32" fill="none">
            <path stroke="#161313" stroke-linejoin="round" stroke-linecap="round" stroke-miterlimit="4" stroke-width="2.6667"
                d="M16.667 29.333c7.364 0 13.333-5.97 13.333-13.333s-5.97-13.333-13.333-13.333c-7.364 0-13.333 5.97-13.333 13.333s5.97 13.333 13.333 13.333z">
            </path>
            <path stroke="#161313" stroke-linejoin="round" stroke-linecap="round" stroke-miterlimit="4" stroke-width="2.6667"
                d="M16.667 8v8l5.333 2.667"></path>
        </symbol>
        <symbol id="refresh" viewBox="0 0 33 32" fill="none">
            <g clip-path="url(#clip0_245_2232)">
                <path stroke="#161313" stroke-linejoin="round" stroke-linecap="round" stroke-miterlimit="4" stroke-width="2.6667"
                    d="M31.333 5.333v8h-8"></path>
                <path stroke="#161313" stroke-linejoin="round" stroke-linecap="round" stroke-miterlimit="4" stroke-width="2.6667"
                    d="M2 26.667v-8h8"></path>
                <path stroke="#161313" stroke-linejoin="round" stroke-linecap="round" stroke-miterlimit="4" stroke-width="2.6667"
                    d="M5.347 11.999c0.676-1.911 1.825-3.619 3.341-4.966s3.347-2.288 5.324-2.735c1.977-0.447 4.035-0.387 5.983 0.177s3.72 1.611 5.153 3.044l6.187 5.813M2 18.666l6.187 5.813c1.433 1.434 3.206 2.481 5.153 3.044s4.005 0.624 5.983 0.177 3.809-1.388 5.324-2.735c1.515-1.347 2.664-3.055 3.341-4.966">
                </path>
            </g>
        </symbol>
        <symbol id="arrow-right" viewBox="0 0 33 32">
            <path fill="none" stroke="#e9e9e9" style="stroke: var(--color3, #e9e9e9)" stroke-linejoin="round"
                stroke-linecap="square" stroke-miterlimit="4" stroke-width="2.6667" d="M6 16h18.667"></path>
            <path fill="none" stroke="#e9e9e9" style="stroke: var(--color3, #e9e9e9)" stroke-linejoin="round"
                stroke-linecap="square" stroke-miterlimit="4" stroke-width="2.6667"
                d="M16.667 6.667l9.333 9.333-9.333 9.333"></path>
        </symbol>
        <symbol id="close" viewBox="0 0 32 32" stroke="#161313">
            <path stroke-linejoin="round" stroke-linecap="round" stroke-miterlimit="4" stroke-width="1.3333"
                d="M20 12l-8 8"></path>
            <path stroke-linejoin="round" stroke-linecap="round" stroke-miterlimit="4" stroke-width="1.3333"
                d="M12 12l8 8"></path>
        </symbol>
    </defs>
</svg>